<svg width="45" height="45" viewBox="0 0 45 45" fill="none" preserveAspectRatio="none"  xmlns="http://www.w3.org/2000/svg">
<path d="M44.707 33.8694C44.1871 33.3156 42.3513 31.678 38.9765 29.5115C35.5768 27.326 33.0697 25.9634 32.3505 25.6456C32.2871 25.6175 32.2173 25.6072 32.1485 25.6158C32.0797 25.6244 32.0145 25.6516 31.96 25.6944C30.8016 26.5979 28.8512 28.2574 28.7466 28.347C28.0713 28.9258 28.0713 28.9258 27.5184 28.7455C26.5463 28.4267 23.5261 26.823 20.8944 24.1854C18.2627 21.5477 16.5764 18.4528 16.2576 17.4816C16.0753 16.9278 16.0753 16.9278 16.656 16.2525C16.7457 16.1479 18.4062 14.1975 19.3096 13.0401C19.3525 12.9856 19.3797 12.9204 19.3883 12.8516C19.3969 12.7828 19.3866 12.713 19.3584 12.6496C19.0407 11.9294 17.678 9.42325 15.4926 6.02358C13.3231 2.64981 11.6875 0.81401 11.1337 0.294049C11.0829 0.246091 11.0201 0.212728 10.9519 0.197476C10.8837 0.182225 10.8126 0.185649 10.7462 0.207389C8.81029 0.872666 6.94241 1.72155 5.16809 2.74245C3.45523 3.73817 1.83361 4.88314 0.322096 6.16403C0.269333 6.20889 0.229775 6.26726 0.207664 6.33289C0.185554 6.39852 0.181725 6.46893 0.196588 6.53657C0.404772 7.50677 1.39987 11.5569 4.48776 17.1669C7.63841 22.8924 9.82184 25.8259 14.4487 30.4368C19.0756 35.0478 22.1017 37.3627 27.8332 40.5133C33.4432 43.6012 37.4953 44.5973 38.4635 44.8035C38.5313 44.8182 38.6018 44.8143 38.6676 44.7922C38.7334 44.7701 38.7919 44.7307 38.8371 44.678C40.1177 43.1665 41.2624 41.5449 42.2576 39.832C43.2784 38.0576 44.1272 36.1897 44.7927 34.2539C44.814 34.188 44.8173 34.1176 44.8022 34.05C44.7872 33.9824 44.7543 33.92 44.707 33.8694Z" fill="black"/>
</svg>
